<svg xmlns="http://www.w3.org/2000/svg" width="1920" height="1080"><path d="M997,478L887,457L849,604Z" fill="#9e9e9e" stroke="#9e9e9e" stroke-width="1.51"/><path d="M849,604L1027,631L997,478Z" fill="#929292" stroke="#929292" stroke-width="1.51"/><path d="M887,457L773,555L849,604Z" fill="#a0a0a0" stroke="#a0a0a0" stroke-width="1.51"/><path d="M887,457L800,436L773,555Z" fill="#a9a9a9" stroke="#a9a9a9" stroke-width="1.51"/><path d="M858,366L800,436L887,457Z" fill="#b0b0b0" stroke="#b0b0b0" stroke-width="1.51"/><path d="M849,604L933,727L1027,631Z" fill="#898989" stroke="#898989" stroke-width="1.51"/><path d="M715,766L933,727L849,604Z" fill="#8b8b8b" stroke="#8b8b8b" stroke-width="1.51"/><path d="M997,478L858,366L887,457Z" fill="#a9a9a9" stroke="#a9a9a9" stroke-width="1.51"/><path d="M1027,631L1105,444L997,478Z" fill="#939393" stroke="#939393" stroke-width="1.51"/><path d="M997,478L1036,312L858,366Z" fill="#ababab" stroke="#ababab" stroke-width="1.51"/><path d="M933,727L974,750L1027,631Z" fill="#7f7f7f" stroke="#7f7f7f" stroke-width="1.51"/><path d="M858,366L805,354L800,436Z" fill="#b6b6b6" stroke="#b6b6b6" stroke-width="1.51"/><path d="M800,436L679,464L773,555Z" fill="#afafaf" stroke="#afafaf" stroke-width="1.51"/><path d="M1105,444L1036,312L997,478Z" fill="#a2a2a2" stroke="#a2a2a2" stroke-width="1.51"/><path d="M858,366L913,248L805,354Z" fill="#bababa" stroke="#bababa" stroke-width="1.51"/><path d="M1027,631L1182,588L1105,444Z" fill="#898989" stroke="#898989" stroke-width="1.51"/><path d="M1105,444L1141,351L1036,312Z" fill="#a2a2a2" stroke="#a2a2a2" stroke-width="1.51"/><path d="M1190,723L1182,588L1027,631Z" fill="#7b7b7b" stroke="#7b7b7b" stroke-width="1.51"/><path d="M805,354L679,464L800,436Z" fill="#b7b7b7" stroke="#b7b7b7" stroke-width="1.51"/><path d="M773,555L715,766L849,604Z" fill="#979797" stroke="#979797" stroke-width="1.51"/><path d="M1290,487L1141,351L1105,444Z" fill="#959595" stroke="#959595" stroke-width="1.51"/><path d="M1036,312L913,248L858,366Z" fill="#b5b5b5" stroke="#b5b5b5" stroke-width="1.51"/><path d="M805,354L635,393L679,464Z" fill="#bebebe" stroke="#bebebe" stroke-width="1.51"/><path d="M990,195L913,248L1036,312Z" fill="#b7b7b7" stroke="#b7b7b7" stroke-width="1.51"/><path d="M594,556L715,766L773,555Z" fill="#9f9f9f" stroke="#9f9f9f" stroke-width="1.51"/><path d="M877,902L1043,838L974,750Z" fill="#6f6f6f" stroke="#6f6f6f" stroke-width="1.51"/><path d="M974,750L1190,723L1027,631Z" fill="#797979" stroke="#797979" stroke-width="1.51"/><path d="M877,902L974,750L933,727Z" fill="#787878" stroke="#787878" stroke-width="1.51"/><path d="M1043,838L1190,723L974,750Z" fill="#707070" stroke="#707070" stroke-width="1.51"/><path d="M913,248L767,260L805,354Z" fill="#c0c0c0" stroke="#c0c0c0" stroke-width="1.51"/><path d="M767,260L635,393L805,354Z" fill="#c2c2c2" stroke="#c2c2c2" stroke-width="1.51"/><path d="M679,464L594,556L773,555Z" fill="#adadad" stroke="#adadad" stroke-width="1.51"/><path d="M715,766L760,834L933,727Z" fill="#838383" stroke="#838383" stroke-width="1.51"/><path d="M635,393L594,556L679,464Z" fill="#b8b8b8" stroke="#b8b8b8" stroke-width="1.51"/><path d="M1126,204L990,195L1036,312Z" fill="#b3b3b3" stroke="#b3b3b3" stroke-width="1.51"/><path d="M913,248L845,119L767,260Z" fill="#c6c6c6" stroke="#c6c6c6" stroke-width="1.51"/><path d="M760,834L877,902L933,727Z" fill="#797979" stroke="#797979" stroke-width="1.51"/><path d="M1182,588L1290,487L1105,444Z" fill="#8a8a8a" stroke="#8a8a8a" stroke-width="1.51"/><path d="M1141,351L1126,204L1036,312Z" fill="#aaaaaa" stroke="#aaaaaa" stroke-width="1.51"/><path d="M1323,590L1290,487L1182,588Z" fill="#7e7e7e" stroke="#7e7e7e" stroke-width="1.51"/><path d="M715,766L584,869L760,834Z" fill="#858585" stroke="#858585" stroke-width="1.51"/><path d="M789,1055L878,992L877,902Z" fill="#5e5e5e" stroke="#5e5e5e" stroke-width="1.51"/><path d="M540,641L603,766L715,766Z" fill="#979797" stroke="#979797" stroke-width="1.51"/><path d="M1293,347L1126,204L1141,351Z" fill="#a3a3a3" stroke="#a3a3a3" stroke-width="1.51"/><path d="M1190,723L1323,590L1182,588Z" fill="#767676" stroke="#767676" stroke-width="1.51"/><path d="M594,556L540,641L715,766Z" fill="#a0a0a0" stroke="#a0a0a0" stroke-width="1.51"/><path d="M498,505L540,641L594,556Z" fill="#afafaf" stroke="#afafaf" stroke-width="1.51"/><path d="M767,260L668,234L635,393Z" fill="#cacaca" stroke="#cacaca" stroke-width="1.51"/><path d="M635,393L498,505L594,556Z" fill="#bababa" stroke="#bababa" stroke-width="1.51"/><path d="M805,85L668,234L767,260Z" fill="#cfcfcf" stroke="#cfcfcf" stroke-width="1.51"/><path d="M1290,487L1293,347L1141,351Z" fill="#959595" stroke="#959595" stroke-width="1.51"/><path d="M1388,424L1293,347L1290,487Z" fill="#8c8c8c" stroke="#8c8c8c" stroke-width="1.51"/><path d="M461,336L498,505L635,393Z" fill="#c7c7c7" stroke="#c7c7c7" stroke-width="1.51"/><path d="M387,573L529,714L540,641Z" fill="#a8a8a8" stroke="#a8a8a8" stroke-width="1.51"/><path d="M540,641L529,714L603,766Z" fill="#9c9c9c" stroke="#9c9c9c" stroke-width="1.51"/><path d="M1161,920L1299,777L1190,723Z" fill="#626262" stroke="#626262" stroke-width="1.51"/><path d="M1190,723L1299,777L1323,590Z" fill="#6b6b6b" stroke="#6b6b6b" stroke-width="1.51"/><path d="M877,902L1058,959L1043,838Z" fill="#606060" stroke="#606060" stroke-width="1.51"/><path d="M990,195L845,119L913,248Z" fill="#c1c1c1" stroke="#c1c1c1" stroke-width="1.51"/><path d="M994,63L845,119L990,195Z" fill="#c4c4c4" stroke="#c4c4c4" stroke-width="1.51"/><path d="M1161,920L1190,723L1043,838Z" fill="#646464" stroke="#646464" stroke-width="1.51"/><path d="M1058,959L1161,920L1043,838Z" fill="#595959" stroke="#595959" stroke-width="1.51"/><path d="M877,902L878,992L1058,959Z" fill="#5c5c5c" stroke="#5c5c5c" stroke-width="1.51"/><path d="M789,1055L877,902L760,834Z" fill="#686868" stroke="#686868" stroke-width="1.51"/><path d="M584,869L715,766L603,766Z" fill="#8b8b8b" stroke="#8b8b8b" stroke-width="1.51"/><path d="M472,841L584,869L603,766Z" fill="#8c8c8c" stroke="#8c8c8c" stroke-width="1.51"/><path d="M994,63L805,85L845,119Z" fill="#cbcbcb" stroke="#cbcbcb" stroke-width="1.51"/><path d="M845,119L805,85L767,260Z" fill="#cecece" stroke="#cecece" stroke-width="1.51"/><path d="M1314,174L1150,119L1126,204Z" fill="#adadad" stroke="#adadad" stroke-width="1.51"/><path d="M1433,559L1388,424L1290,487Z" fill="#7f7f7f" stroke="#7f7f7f" stroke-width="1.51"/><path d="M1433,559L1290,487L1323,590Z" fill="#797979" stroke="#797979" stroke-width="1.51"/><path d="M1126,204L1150,119L990,195Z" fill="#b5b5b5" stroke="#b5b5b5" stroke-width="1.51"/><path d="M1314,174L1126,204L1293,347Z" fill="#a4a4a4" stroke="#a4a4a4" stroke-width="1.51"/><path d="M1150,119L994,63L990,195Z" fill="#bcbcbc" stroke="#bcbcbc" stroke-width="1.51"/><path d="M1058,959L1138,991L1161,920Z" fill="#4e4e4e" stroke="#4e4e4e" stroke-width="1.51"/><path d="M1350,863L1375,778L1299,777Z" fill="#595959" stroke="#595959" stroke-width="1.51"/><path d="M1057,1164L1138,991L1058,959Z" fill="#464646" stroke="#464646" stroke-width="1.51"/><path d="M1388,424L1403,386L1293,347Z" fill="#8d8d8d" stroke="#8d8d8d" stroke-width="1.51"/><path d="M1547,466L1403,386L1388,424Z" fill="#828282" stroke="#828282" stroke-width="1.51"/><path d="M1299,777L1375,778L1323,590Z" fill="#656565" stroke="#656565" stroke-width="1.51"/><path d="M1350,863L1299,777L1161,920Z" fill="#565656" stroke="#565656" stroke-width="1.51"/><path d="M1375,778L1433,559L1323,590Z" fill="#6a6a6a" stroke="#6a6a6a" stroke-width="1.51"/><path d="M452,200L461,336L668,234Z" fill="#d7d7d7" stroke="#d7d7d7" stroke-width="1.51"/><path d="M668,234L461,336L635,393Z" fill="#cdcdcd" stroke="#cdcdcd" stroke-width="1.51"/><path d="M498,505L387,573L540,641Z" fill="#b2b2b2" stroke="#b2b2b2" stroke-width="1.51"/><path d="M595,1041L789,1055L760,834Z" fill="#686868" stroke="#686868" stroke-width="1.51"/><path d="M878,992L1057,1164L1058,959Z" fill="#4c4c4c" stroke="#4c4c4c" stroke-width="1.51"/><path d="M1260,1050L1350,863L1161,920Z" fill="#474747" stroke="#474747" stroke-width="1.51"/><path d="M805,85L677,73L668,234Z" fill="#d6d6d6" stroke="#d6d6d6" stroke-width="1.51"/><path d="M705,-31L677,73L805,85Z" fill="#dbdbdb" stroke="#dbdbdb" stroke-width="1.51"/><path d="M1166,-103L974,-59L994,63Z" fill="#c2c2c2" stroke="#c2c2c2" stroke-width="1.51"/><path d="M1403,386L1314,174L1293,347Z" fill="#979797" stroke="#979797" stroke-width="1.51"/><path d="M394,384L391,493L498,505Z" fill="#c5c5c5" stroke="#c5c5c5" stroke-width="1.51"/><path d="M529,714L472,841L603,766Z" fill="#959595" stroke="#959595" stroke-width="1.51"/><path d="M391,493L387,573L498,505Z" fill="#bcbcbc" stroke="#bcbcbc" stroke-width="1.51"/><path d="M584,869L595,1041L760,834Z" fill="#767676" stroke="#767676" stroke-width="1.51"/><path d="M308,756L472,841L529,714Z" fill="#999999" stroke="#999999" stroke-width="1.51"/><path d="M195,600L308,756L387,573Z" fill="#b1b1b1" stroke="#b1b1b1" stroke-width="1.51"/><path d="M461,336L394,384L498,505Z" fill="#cccccc" stroke="#cccccc" stroke-width="1.51"/><path d="M382,217L394,384L461,336Z" fill="#d7d7d7" stroke="#d7d7d7" stroke-width="1.51"/><path d="M1314,174L1309,123L1150,119Z" fill="#ababab" stroke="#ababab" stroke-width="1.51"/><path d="M1413,80L1309,123L1314,174Z" fill="#a5a5a5" stroke="#a5a5a5" stroke-width="1.51"/><path d="M789,1055L842,1114L878,992Z" fill="#555555" stroke="#555555" stroke-width="1.51"/><path d="M747,1156L842,1114L789,1055Z" fill="#555555" stroke="#555555" stroke-width="1.51"/><path d="M677,73L452,200L668,234Z" fill="#dadada" stroke="#dadada" stroke-width="1.51"/><path d="M442,1030L595,1041L584,869Z" fill="#717171" stroke="#717171" stroke-width="1.51"/><path d="M1169,1166L1260,1050L1138,991Z" fill="#3c3c3c" stroke="#3c3c3c" stroke-width="1.51"/><path d="M1138,991L1260,1050L1161,920Z" fill="#464646" stroke="#464646" stroke-width="1.51"/><path d="M994,63L974,-59L805,85Z" fill="#cbcbcb" stroke="#cbcbcb" stroke-width="1.51"/><path d="M1166,-103L994,63L1150,119Z" fill="#bdbdbd" stroke="#bdbdbd" stroke-width="1.51"/><path d="M595,1041L662,1104L789,1055Z" fill="#5e5e5e" stroke="#5e5e5e" stroke-width="1.51"/><path d="M677,73L463,48L452,200Z" fill="#e3e3e3" stroke="#e3e3e3" stroke-width="1.51"/><path d="M944,-117L705,-31L805,85Z" fill="#d5d5d5" stroke="#d5d5d5" stroke-width="1.51"/><path d="M1433,559L1547,466L1388,424Z" fill="#797979" stroke="#797979" stroke-width="1.51"/><path d="M1403,386L1481,162L1314,174Z" fill="#989898" stroke="#989898" stroke-width="1.51"/><path d="M1567,565L1547,466L1433,559Z" fill="#6c6c6c" stroke="#6c6c6c" stroke-width="1.51"/><path d="M1567,565L1433,559L1597,776Z" fill="#5e5e5e" stroke="#5e5e5e" stroke-width="1.51"/><path d="M1444,922L1375,778L1350,863Z" fill="#4e4e4e" stroke="#4e4e4e" stroke-width="1.51"/><path d="M842,1114L1057,1164L878,992Z" fill="#4b4b4b" stroke="#4b4b4b" stroke-width="1.51"/><path d="M893,1227L1057,1164L842,1114Z" fill="#4b4b4b" stroke="#4b4b4b" stroke-width="1.51"/><path d="M662,1104L747,1156L789,1055Z" fill="#595959" stroke="#595959" stroke-width="1.51"/><path d="M452,200L382,217L461,336Z" fill="#dddddd" stroke="#dddddd" stroke-width="1.51"/><path d="M250,494L387,573L391,493Z" fill="#c0c0c0" stroke="#c0c0c0" stroke-width="1.51"/><path d="M389,60L382,217L452,200Z" fill="#e6e6e6" stroke="#e6e6e6" stroke-width="1.51"/><path d="M472,841L442,1030L584,869Z" fill="#7e7e7e" stroke="#7e7e7e" stroke-width="1.51"/><path d="M595,1041L501,1090L662,1104Z" fill="#616161" stroke="#616161" stroke-width="1.51"/><path d="M308,756L382,875L472,841Z" fill="#949494" stroke="#949494" stroke-width="1.51"/><path d="M308,756L529,714L387,573Z" fill="#a7a7a7" stroke="#a7a7a7" stroke-width="1.51"/><path d="M1260,1050L1444,922L1350,863Z" fill="#404040" stroke="#404040" stroke-width="1.51"/><path d="M1597,776L1433,559L1375,778Z" fill="#5c5c5c" stroke="#5c5c5c" stroke-width="1.51"/><path d="M1746,321L1527,300L1547,466Z" fill="#787878" stroke="#787878" stroke-width="1.51"/><path d="M1547,466L1527,300L1403,386Z" fill="#828282" stroke="#828282" stroke-width="1.51"/><path d="M250,494L391,493L394,384Z" fill="#cacaca" stroke="#cacaca" stroke-width="1.51"/><path d="M974,-59L944,-117L805,85Z" fill="#cdcdcd" stroke="#cdcdcd" stroke-width="1.51"/><path d="M1149,-159L944,-117L974,-59Z" fill="#c4c4c4" stroke="#c4c4c4" stroke-width="1.51"/><path d="M1057,1164L1169,1166L1138,991Z" fill="#3e3e3e" stroke="#3e3e3e" stroke-width="1.51"/><path d="M1460,1009L1520,907L1444,922Z" fill="#373737" stroke="#373737" stroke-width="1.51"/><path d="M1275,-85L1166,-103L1150,119Z" fill="#b6b6b6" stroke="#b6b6b6" stroke-width="1.51"/><path d="M1481,162L1413,80L1314,174Z" fill="#a0a0a0" stroke="#a0a0a0" stroke-width="1.51"/><path d="M1527,300L1481,162L1403,386Z" fill="#8e8e8e" stroke="#8e8e8e" stroke-width="1.51"/><path d="M203,350L250,494L394,384Z" fill="#d4d4d4" stroke="#d4d4d4" stroke-width="1.51"/><path d="M389,60L463,48L358,-21Z" fill="#eeeeee" stroke="#eeeeee" stroke-width="1.51"/><path d="M587,-101L463,48L677,73Z" fill="#e6e6e6" stroke="#e6e6e6" stroke-width="1.51"/><path d="M747,1156L893,1227L842,1114Z" fill="#525252" stroke="#525252" stroke-width="1.51"/><path d="M1057,1164L1068,1312L1169,1166Z" fill="#404040" stroke="#404040" stroke-width="1.51"/><path d="M382,875L442,1030L472,841Z" fill="#808080" stroke="#808080" stroke-width="1.51"/><path d="M646,1305L759,1334L747,1156Z" fill="#5a5a5a" stroke="#5a5a5a" stroke-width="1.51"/><path d="M747,1156L759,1334L893,1227Z" fill="#545454" stroke="#545454" stroke-width="1.51"/><path d="M359,1033L442,1030L382,875Z" fill="#777777" stroke="#777777" stroke-width="1.51"/><path d="M442,1030L501,1090L595,1041Z" fill="#686868" stroke="#686868" stroke-width="1.51"/><path d="M1275,-85L1150,119L1309,123Z" fill="#b0b0b0" stroke="#b0b0b0" stroke-width="1.51"/><path d="M1444,922L1520,907L1375,778Z" fill="#474747" stroke="#474747" stroke-width="1.51"/><path d="M1460,1009L1444,922L1260,1050Z" fill="#383838" stroke="#383838" stroke-width="1.51"/><path d="M1169,1166L1308,1135L1260,1050Z" fill="#373737" stroke="#373737" stroke-width="1.51"/><path d="M1527,300L1517,163L1481,162Z" fill="#909090" stroke="#909090" stroke-width="1.51"/><path d="M1481,162L1517,163L1413,80Z" fill="#9a9a9a" stroke="#9a9a9a" stroke-width="1.51"/><path d="M1645,125L1517,163L1527,300Z" fill="#8b8b8b" stroke="#8b8b8b" stroke-width="1.51"/><path d="M1308,1135L1460,1009L1260,1050Z" fill="#323232" stroke="#323232" stroke-width="1.51"/><path d="M1520,907L1597,776L1375,778Z" fill="#4a4a4a" stroke="#4a4a4a" stroke-width="1.51"/><path d="M1567,565L1745,489L1547,466Z" fill="#656565" stroke="#656565" stroke-width="1.51"/><path d="M1413,80L1275,-85L1309,123Z" fill="#ababab" stroke="#ababab" stroke-width="1.51"/><path d="M1382,-103L1275,-85L1413,80Z" fill="#aaaaaa" stroke="#aaaaaa" stroke-width="1.51"/><path d="M463,48L389,60L452,200Z" fill="#e8e8e8" stroke="#e8e8e8" stroke-width="1.51"/><path d="M382,217L203,350L394,384Z" fill="#dbdbdb" stroke="#dbdbdb" stroke-width="1.51"/><path d="M587,-101L677,73L705,-31Z" fill="#e1e1e1" stroke="#e1e1e1" stroke-width="1.51"/><path d="M742,-189L587,-101L705,-31Z" fill="#e0e0e0" stroke="#e0e0e0" stroke-width="1.51"/><path d="M308,756L197,908L382,875Z" fill="#949494" stroke="#949494" stroke-width="1.51"/><path d="M250,494L195,600L387,573Z" fill="#bebebe" stroke="#bebebe" stroke-width="1.51"/><path d="M76,418L195,600L250,494Z" fill="#c9c9c9" stroke="#c9c9c9" stroke-width="1.51"/><path d="M1166,-103L1149,-159L974,-59Z" fill="#bfbfbf" stroke="#bfbfbf" stroke-width="1.51"/><path d="M944,-117L742,-189L705,-31Z" fill="#d7d7d7" stroke="#d7d7d7" stroke-width="1.51"/><path d="M1275,-85L1149,-159L1166,-103Z" fill="#b6b6b6" stroke="#b6b6b6" stroke-width="1.51"/><path d="M195,600L210,736L308,756Z" fill="#acacac" stroke="#acacac" stroke-width="1.51"/><path d="M442,1030L316,1121L501,1090Z" fill="#696969" stroke="#696969" stroke-width="1.51"/><path d="M240,1007L359,1033L382,875Z" fill="#7c7c7c" stroke="#7c7c7c" stroke-width="1.51"/><path d="M243,158L203,350L382,217Z" fill="#e5e5e5" stroke="#e5e5e5" stroke-width="1.51"/><path d="M947,-245L742,-189L944,-117Z" fill="#d0d0d0" stroke="#d0d0d0" stroke-width="1.51"/><path d="M1308,1135L1403,1146L1460,1009Z" fill="#2e2e2e" stroke="#2e2e2e" stroke-width="1.51"/><path d="M1460,1009L1530,1038L1520,907Z" fill="#303030" stroke="#303030" stroke-width="1.51"/><path d="M1741,851L1694,726L1597,776Z" fill="#3e3e3e" stroke="#3e3e3e" stroke-width="1.51"/><path d="M1403,1273L1403,1146L1308,1135Z" fill="#2f2f2f" stroke="#2f2f2f" stroke-width="1.51"/><path d="M1278,1319L1308,1135L1169,1166Z" fill="#363636" stroke="#363636" stroke-width="1.51"/><path d="M1403,1146L1530,1038L1460,1009Z" fill="#2a2a2a" stroke="#2a2a2a" stroke-width="1.51"/><path d="M893,1227L1068,1312L1057,1164Z" fill="#464646" stroke="#464646" stroke-width="1.51"/><path d="M759,1334L1068,1312L893,1227Z" fill="#4d4d4d" stroke="#4d4d4d" stroke-width="1.51"/><path d="M389,60L243,158L382,217Z" fill="#eaeaea" stroke="#eaeaea" stroke-width="1.51"/><path d="M358,-21L243,158L389,60Z" fill="#efefef" stroke="#efefef" stroke-width="1.51"/><path d="M1741,851L1597,776L1520,907Z" fill="#3b3b3b" stroke="#3b3b3b" stroke-width="1.51"/><path d="M1597,776L1694,726L1567,565Z" fill="#4e4e4e" stroke="#4e4e4e" stroke-width="1.51"/><path d="M587,-101L467,-97L463,48Z" fill="#eaeaea" stroke="#eaeaea" stroke-width="1.51"/><path d="M477,-182L467,-97L587,-101Z" fill="#eaeaea" stroke="#eaeaea" stroke-width="1.51"/><path d="M1072,-249L947,-245L944,-117Z" fill="#c7c7c7" stroke="#c7c7c7" stroke-width="1.51"/><path d="M1275,-85L1266,-231L1149,-159Z" fill="#b4b4b4" stroke="#b4b4b4" stroke-width="1.51"/><path d="M1149,-159L1072,-249L944,-117Z" fill="#c2c2c2" stroke="#c2c2c2" stroke-width="1.51"/><path d="M1540,-50L1382,-103L1413,80Z" fill="#a4a4a4" stroke="#a4a4a4" stroke-width="1.51"/><path d="M467,-97L358,-21L463,48Z" fill="#eeeeee" stroke="#eeeeee" stroke-width="1.51"/><path d="M947,-245L611,-193L742,-189Z" fill="#d9d9d9" stroke="#d9d9d9" stroke-width="1.51"/><path d="M742,-189L611,-193L587,-101Z" fill="#e2e2e2" stroke="#e2e2e2" stroke-width="1.51"/><path d="M646,1305L747,1156L662,1104Z" fill="#5c5c5c" stroke="#5c5c5c" stroke-width="1.51"/><path d="M646,1305L662,1104L501,1090Z" fill="#606060" stroke="#606060" stroke-width="1.51"/><path d="M1068,1312L1187,1309L1169,1166Z" fill="#3d3d3d" stroke="#3d3d3d" stroke-width="1.51"/><path d="M1278,1319L1187,1309L1068,1312Z" fill="#3b3b3b" stroke="#3b3b3b" stroke-width="1.51"/><path d="M1266,-231L1072,-249L1149,-159Z" fill="#b9b9b9" stroke="#b9b9b9" stroke-width="1.51"/><path d="M452,1303L646,1305L501,1090Z" fill="#646464" stroke="#646464" stroke-width="1.51"/><path d="M359,1033L316,1121L442,1030Z" fill="#6d6d6d" stroke="#6d6d6d" stroke-width="1.51"/><path d="M210,736L197,908L308,756Z" fill="#9e9e9e" stroke="#9e9e9e" stroke-width="1.51"/><path d="M104,897L197,908L210,736Z" fill="#989898" stroke="#989898" stroke-width="1.51"/><path d="M1748,562L1745,489L1567,565Z" fill="#5a5a5a" stroke="#5a5a5a" stroke-width="1.51"/><path d="M1517,163L1621,48L1413,80Z" fill="#979797" stroke="#979797" stroke-width="1.51"/><path d="M1694,726L1748,562L1567,565Z" fill="#525252" stroke="#525252" stroke-width="1.51"/><path d="M197,908L240,1007L382,875Z" fill="#858585" stroke="#858585" stroke-width="1.51"/><path d="M1716,151L1645,125L1527,300Z" fill="#848484" stroke="#848484" stroke-width="1.51"/><path d="M240,1007L316,1121L359,1033Z" fill="#717171" stroke="#717171" stroke-width="1.51"/><path d="M1735,1006L1741,851L1520,907Z" fill="#2a2a2a" stroke="#2a2a2a" stroke-width="1.51"/><path d="M1403,1146L1572,1089L1530,1038Z" fill="#252525" stroke="#252525" stroke-width="1.51"/><path d="M1559,1309L1572,1089L1403,1146Z" fill="#242424" stroke="#242424" stroke-width="1.51"/><path d="M1434,-146L1266,-231L1382,-103Z" fill="#aaaaaa" stroke="#aaaaaa" stroke-width="1.51"/><path d="M1382,-103L1266,-231L1275,-85Z" fill="#aeaeae" stroke="#aeaeae" stroke-width="1.51"/><path d="M1187,1309L1278,1319L1169,1166Z" fill="#393939" stroke="#393939" stroke-width="1.51"/><path d="M759,1334L1278,1319L1068,1312Z" fill="#444444" stroke="#444444" stroke-width="1.51"/><path d="M1812,417L1746,321L1745,489Z" fill="#656565" stroke="#656565" stroke-width="1.51"/><path d="M1745,489L1746,321L1547,466Z" fill="#696969" stroke="#696969" stroke-width="1.51"/><path d="M203,350L76,418L250,494Z" fill="#d6d6d6" stroke="#d6d6d6" stroke-width="1.51"/><path d="M35,775L104,897L210,736Z" fill="#a2a2a2" stroke="#a2a2a2" stroke-width="1.51"/><path d="M243,158L105,318L203,350Z" fill="#e6e6e6" stroke="#e6e6e6" stroke-width="1.51"/><path d="M94,147L105,318L243,158Z" fill="#ededed" stroke="#ededed" stroke-width="1.51"/><path d="M1716,151L1621,48L1645,125Z" fill="#868686" stroke="#868686" stroke-width="1.51"/><path d="M1645,125L1621,48L1517,163Z" fill="#8d8d8d" stroke="#8d8d8d" stroke-width="1.51"/><path d="M1621,48L1540,-50L1413,80Z" fill="#999999" stroke="#999999" stroke-width="1.51"/><path d="M358,-21L187,118L243,158Z" fill="#f2f2f2" stroke="#f2f2f2" stroke-width="1.51"/><path d="M611,-193L477,-182L587,-101Z" fill="#e7e7e7" stroke="#e7e7e7" stroke-width="1.51"/><path d="M467,-97L328,-240L358,-21Z" fill="#f0f0f0" stroke="#f0f0f0" stroke-width="1.51"/><path d="M358,-21L231,-50L187,118Z" fill="#f5f5f5" stroke="#f5f5f5" stroke-width="1.51"/><path d="M328,-240L477,-182L611,-193Z" fill="#ececec" stroke="#ececec" stroke-width="1.51"/><path d="M1540,-50L1434,-146L1382,-103Z" fill="#a3a3a3" stroke="#a3a3a3" stroke-width="1.51"/><path d="M105,318L76,418L203,350Z" fill="#dedede" stroke="#dedede" stroke-width="1.51"/><path d="M1278,1319L1403,1273L1308,1135Z" fill="#323232" stroke="#323232" stroke-width="1.51"/><path d="M1694,726L1791,763L1748,562Z" fill="#454545" stroke="#454545" stroke-width="1.51"/><path d="M1735,1006L1520,907L1530,1038Z" fill="#282828" stroke="#282828" stroke-width="1.51"/><path d="M1746,321L1716,151L1527,300Z" fill="#7b7b7b" stroke="#7b7b7b" stroke-width="1.51"/><path d="M1706,-222L1529,-220L1540,-50Z" fill="#939393" stroke="#939393" stroke-width="1.51"/><path d="M1741,851L1791,763L1694,726Z" fill="#3a3a3a" stroke="#3a3a3a" stroke-width="1.51"/><path d="M1861,572L1812,417L1745,489Z" fill="#575757" stroke="#575757" stroke-width="1.51"/><path d="M646,1305L452,1303L759,1334Z" fill="#5f5f5f" stroke="#5f5f5f" stroke-width="1.51"/><path d="M340,1249L452,1303L501,1090Z" fill="#696969" stroke="#696969" stroke-width="1.51"/><path d="M1861,572L1745,489L1748,562Z" fill="#535353" stroke="#535353" stroke-width="1.51"/><path d="M1746,321L1887,211L1716,151Z" fill="#747474" stroke="#747474" stroke-width="1.51"/><path d="M316,1121L340,1249L501,1090Z" fill="#6a6a6a" stroke="#6a6a6a" stroke-width="1.51"/><path d="M202,1162L340,1249L316,1121Z" fill="#6f6f6f" stroke="#6f6f6f" stroke-width="1.51"/><path d="M197,908L112,1006L240,1007Z" fill="#818181" stroke="#818181" stroke-width="1.51"/><path d="M35,775L210,736L195,600Z" fill="#aeaeae" stroke="#aeaeae" stroke-width="1.51"/><path d="M76,418L29,571L195,600Z" fill="#c8c8c8" stroke="#c8c8c8" stroke-width="1.51"/><path d="M-10,623L29,571L-60,506Z" fill="#c6c6c6" stroke="#c6c6c6" stroke-width="1.51"/><path d="M202,1162L316,1121L240,1007Z" fill="#707070" stroke="#707070" stroke-width="1.51"/><path d="M328,-240L231,-50L358,-21Z" fill="#f4f4f4" stroke="#f4f4f4" stroke-width="1.51"/><path d="M187,118L94,147L243,158Z" fill="#f1f1f1" stroke="#f1f1f1" stroke-width="1.51"/><path d="M-10,623L35,775L195,600Z" fill="#b5b5b5" stroke="#b5b5b5" stroke-width="1.51"/><path d="M138,30L94,147L187,118Z" fill="#f5f5f5" stroke="#f5f5f5" stroke-width="1.51"/><path d="M-79,346L-60,506L76,418Z" fill="#dbdbdb" stroke="#dbdbdb" stroke-width="1.51"/><path d="M1672,1198L1735,1006L1572,1089Z" fill="#181818" stroke="#181818" stroke-width="1.51"/><path d="M1572,1089L1735,1006L1530,1038Z" fill="#202020" stroke="#202020" stroke-width="1.51"/><path d="M1741,851L1806,850L1791,763Z" fill="#323232" stroke="#323232" stroke-width="1.51"/><path d="M1735,1006L1806,850L1741,851Z" fill="#272727" stroke="#272727" stroke-width="1.51"/><path d="M1791,763L1861,572L1748,562Z" fill="#474747" stroke="#474747" stroke-width="1.51"/><path d="M1922,761L1861,572L1791,763Z" fill="#3b3b3b" stroke="#3b3b3b" stroke-width="1.51"/><path d="M104,897L112,1006L197,908Z" fill="#878787" stroke="#878787" stroke-width="1.51"/><path d="M-72,975L112,1006L104,897Z" fill="#868686" stroke="#868686" stroke-width="1.51"/><path d="M-60,506L29,571L76,418Z" fill="#cfcfcf" stroke="#cfcfcf" stroke-width="1.51"/><path d="M29,571L-10,623L195,600Z" fill="#bfbfbf" stroke="#bfbfbf" stroke-width="1.51"/><path d="M231,-50L138,30L187,118Z" fill="#f7f7f7" stroke="#f7f7f7" stroke-width="1.51"/><path d="M112,1006L202,1162L240,1007Z" fill="#757575" stroke="#757575" stroke-width="1.51"/><path d="M1540,-50L1529,-220L1434,-146Z" fill="#9d9d9d" stroke="#9d9d9d" stroke-width="1.51"/><path d="M1434,-146L1529,-220L1266,-231Z" fill="#a6a6a6" stroke="#a6a6a6" stroke-width="1.51"/><path d="M1266,-231L1706,-222L1072,-249Z" fill="#ababab" stroke="#ababab" stroke-width="1.51"/><path d="M1720,-45L1540,-50L1621,48Z" fill="#8f8f8f" stroke="#8f8f8f" stroke-width="1.51"/><path d="M-79,346L105,318L-37,165Z" fill="#ebebeb" stroke="#ebebeb" stroke-width="1.51"/><path d="M-79,346L76,418L105,318Z" fill="#e1e1e1" stroke="#e1e1e1" stroke-width="1.51"/><path d="M-10,623L-50,714L35,775Z" fill="#b3b3b3" stroke="#b3b3b3" stroke-width="1.51"/><path d="M35,775L-78,912L104,897Z" fill="#999999" stroke="#999999" stroke-width="1.51"/><path d="M477,-182L328,-240L467,-97Z" fill="#eeeeee" stroke="#eeeeee" stroke-width="1.51"/><path d="M231,-50L59,-30L138,30Z" fill="#fafafa" stroke="#fafafa" stroke-width="1.51"/><path d="M947,-245L328,-240L611,-193Z" fill="#e3e3e3" stroke="#e3e3e3" stroke-width="1.51"/><path d="M177,-254L328,-240L947,-245Z" fill="#ececec" stroke="#ececec" stroke-width="1.51"/><path d="M1886,291L1746,321L1812,417Z" fill="#686868" stroke="#686868" stroke-width="1.51"/><path d="M1858,41L1720,-45L1716,151Z" fill="#808080" stroke="#808080" stroke-width="1.51"/><path d="M1716,151L1720,-45L1621,48Z" fill="#868686" stroke="#868686" stroke-width="1.51"/><path d="M1559,1309L1672,1198L1572,1089Z" fill="#1d1d1d" stroke="#1d1d1d" stroke-width="1.51"/><path d="M1735,1006L1801,1037L1806,850Z" fill="#1d1d1d" stroke="#1d1d1d" stroke-width="1.51"/><path d="M1559,1309L1403,1146L1403,1273Z" fill="#292929" stroke="#292929" stroke-width="1.51"/><path d="M1278,1319L1559,1309L1403,1273Z" fill="#2d2d2d" stroke="#2d2d2d" stroke-width="1.51"/><path d="M-156,652L-50,714L-10,623Z" fill="#b8b8b8" stroke="#b8b8b8" stroke-width="1.51"/><path d="M2004,373L1886,291L1812,417Z" fill="#5f5f5f" stroke="#5f5f5f" stroke-width="1.51"/><path d="M1806,850L1922,761L1791,763Z" fill="#323232" stroke="#323232" stroke-width="1.51"/><path d="M1672,1198L1801,1037L1735,1006Z" fill="#121212" stroke="#121212" stroke-width="1.51"/><path d="M1886,291L1887,211L1746,321Z" fill="#6c6c6c" stroke="#6c6c6c" stroke-width="1.51"/><path d="M2008,842L1922,761L1806,850Z" fill="#2a2a2a" stroke="#2a2a2a" stroke-width="1.51"/><path d="M1861,572L1980,498L1812,417Z" fill="#515151" stroke="#515151" stroke-width="1.51"/><path d="M1886,291L1927,225L1887,211Z" fill="#6a6a6a" stroke="#6a6a6a" stroke-width="1.51"/><path d="M-162,910L-78,912L-50,714Z" fill="#9d9d9d" stroke="#9d9d9d" stroke-width="1.51"/><path d="M-37,165L105,318L94,147Z" fill="#efefef" stroke="#efefef" stroke-width="1.51"/><path d="M57,1156L180,1251L202,1162Z" fill="#737373" stroke="#737373" stroke-width="1.51"/><path d="M202,1162L180,1251L340,1249Z" fill="#707070" stroke="#707070" stroke-width="1.51"/><path d="M340,1249L180,1251L452,1303Z" fill="#6d6d6d" stroke="#6d6d6d" stroke-width="1.51"/><path d="M57,1156L202,1162L112,1006Z" fill="#737373" stroke="#737373" stroke-width="1.51"/><path d="M-25,111L-37,165L94,147Z" fill="#f6f6f6" stroke="#f6f6f6" stroke-width="1.51"/><path d="M-25,111L94,147L138,30Z" fill="#f7f7f7" stroke="#f7f7f7" stroke-width="1.51"/><path d="M1922,761L1963,639L1861,572Z" fill="#3c3c3c" stroke="#3c3c3c" stroke-width="1.51"/><path d="M177,-254L59,-30L231,-50Z" fill="#fafafa" stroke="#fafafa" stroke-width="1.51"/><path d="M59,-30L-25,111L138,30Z" fill="#fbfbfb" stroke="#fbfbfb" stroke-width="1.51"/><path d="M-232,289L-153,507L-79,346Z" fill="#e0e0e0" stroke="#e0e0e0" stroke-width="1.51"/><path d="M2004,373L1927,225L1886,291Z" fill="#646464" stroke="#646464" stroke-width="1.51"/><path d="M1887,211L1858,41L1716,151Z" fill="#787878" stroke="#787878" stroke-width="1.51"/><path d="M1963,639L1980,498L1861,572Z" fill="#464646" stroke="#464646" stroke-width="1.51"/><path d="M2016,117L1858,41L1887,211Z" fill="#717171" stroke="#717171" stroke-width="1.51"/><path d="M1720,-45L1706,-222L1540,-50Z" fill="#8c8c8c" stroke="#8c8c8c" stroke-width="1.51"/><path d="M3,1158L57,1156L112,1006Z" fill="#757575" stroke="#757575" stroke-width="1.51"/><path d="M-156,652L-10,623L-60,506Z" fill="#c2c2c2" stroke="#c2c2c2" stroke-width="1.51"/><path d="M-50,714L-78,912L35,775Z" fill="#a5a5a5" stroke="#a5a5a5" stroke-width="1.51"/><path d="M-79,346L-153,507L-60,506Z" fill="#d6d6d6" stroke="#d6d6d6" stroke-width="1.51"/><path d="M-186,239L-79,346L-37,165Z" fill="#ededed" stroke="#ededed" stroke-width="1.51"/><path d="M-78,912L-72,975L104,897Z" fill="#8d8d8d" stroke="#8d8d8d" stroke-width="1.51"/><path d="M-144,978L-72,975L-78,912Z" fill="#888888" stroke="#888888" stroke-width="1.51"/><path d="M-153,507L-156,652L-60,506Z" fill="#c7c7c7" stroke="#c7c7c7" stroke-width="1.51"/><path d="M1963,-43L1869,-85L1858,41Z" fill="#797979" stroke="#797979" stroke-width="1.51"/><path d="M1980,498L2004,373L1812,417Z" fill="#575757" stroke="#575757" stroke-width="1.51"/><path d="M2071,527L2004,373L1980,498Z" fill="#525252" stroke="#525252" stroke-width="1.51"/><path d="M1797,-211L1706,-222L1720,-45Z" fill="#858585" stroke="#858585" stroke-width="1.51"/><path d="M1529,-220L1706,-222L1266,-231Z" fill="#9d9d9d" stroke="#9d9d9d" stroke-width="1.51"/><path d="M1072,-249L177,-254L947,-245Z" fill="#dddddd" stroke="#dddddd" stroke-width="1.51"/><path d="M328,-240L177,-254L231,-50Z" fill="#f7f7f7" stroke="#f7f7f7" stroke-width="1.51"/><path d="M-236,60L-37,165L-25,111Z" fill="#f9f9f9" stroke="#f9f9f9" stroke-width="1.51"/><path d="M1672,1198L1874,1148L1801,1037Z" fill="#0e0e0e" stroke="#0e0e0e" stroke-width="1.51"/><path d="M2012,1026L2008,842L1806,850Z" fill="#1c1c1c" stroke="#1c1c1c" stroke-width="1.51"/><path d="M1559,1309L1742,1288L1672,1198Z" fill="#181818" stroke="#181818" stroke-width="1.51"/><path d="M-72,975L3,1158L112,1006Z" fill="#7b7b7b" stroke="#7b7b7b" stroke-width="1.51"/><path d="M57,1156L45,1323L180,1251Z" fill="#747474" stroke="#747474" stroke-width="1.51"/><path d="M1922,761L2096,795L1963,639Z" fill="#333333" stroke="#333333" stroke-width="1.51"/><path d="M1963,639L2059,582L1980,498Z" fill="#454545" stroke="#454545" stroke-width="1.51"/><path d="M2012,1026L1806,850L1801,1037Z" fill="#161616" stroke="#161616" stroke-width="1.51"/><path d="M1805,1281L1874,1148L1672,1198Z" fill="#0e0e0e" stroke="#0e0e0e" stroke-width="1.51"/><path d="M2096,795L2059,582L1963,639Z" fill="#3a3a3a" stroke="#3a3a3a" stroke-width="1.51"/><path d="M2016,117L1887,211L1927,225Z" fill="#6d6d6d" stroke="#6d6d6d" stroke-width="1.51"/><path d="M1858,41L1869,-85L1720,-45Z" fill="#7f7f7f" stroke="#7f7f7f" stroke-width="1.51"/><path d="M1941,1281L1919,1112L1874,1148Z" fill="#010101" stroke="#010101" stroke-width="1.51"/><path d="M1874,1148L1919,1112L1801,1037Z" fill="#060606" stroke="#060606" stroke-width="1.51"/><path d="M2059,582L2071,527L1980,498Z" fill="#494949" stroke="#494949" stroke-width="1.51"/><path d="M2004,373L2060,335L1927,225Z" fill="#626262" stroke="#626262" stroke-width="1.51"/><path d="M2096,795L2071,527L2059,582Z" fill="#3e3e3e" stroke="#3e3e3e" stroke-width="1.51"/><path d="M1742,1288L1805,1281L1672,1198Z" fill="#121212" stroke="#121212" stroke-width="1.51"/><path d="M1941,1281L1805,1281L1742,1288Z" fill="#0a0a0a" stroke="#0a0a0a" stroke-width="1.51"/><path d="M-239,718L-162,910L-50,714Z" fill="#a8a8a8" stroke="#a8a8a8" stroke-width="1.51"/><path d="M-72,975L-153,1147L3,1158Z" fill="#777777" stroke="#777777" stroke-width="1.51"/><path d="M-239,718L-50,714L-156,652Z" fill="#b4b4b4" stroke="#b4b4b4" stroke-width="1.51"/><path d="M2071,527L2060,335L2004,373Z" fill="#595959" stroke="#595959" stroke-width="1.51"/><path d="M1869,-85L1797,-211L1720,-45Z" fill="#818181" stroke="#818181" stroke-width="1.51"/><path d="M-153,507L-239,718L-156,652Z" fill="#bdbdbd" stroke="#bdbdbd" stroke-width="1.51"/><path d="M-236,60L-186,239L-37,165Z" fill="#f6f6f6" stroke="#f6f6f6" stroke-width="1.51"/><path d="M-44,-110L-25,111L59,-30Z" fill="#ffffff" stroke="#ffffff" stroke-width="1.51"/><path d="M-162,910L-144,978L-78,912Z" fill="#8c8c8c" stroke="#8c8c8c" stroke-width="1.51"/><path d="M2060,335L2016,117L1927,225Z" fill="#6a6a6a" stroke="#6a6a6a" stroke-width="1.51"/><path d="M1869,-85L1985,-167L1797,-211Z" fill="#7a7a7a" stroke="#7a7a7a" stroke-width="1.51"/><path d="M31,-211L-44,-110L59,-30Z" fill="#fefefe" stroke="#fefefe" stroke-width="1.51"/><path d="M177,-254L31,-211L59,-30Z" fill="#fcfcfc" stroke="#fcfcfc" stroke-width="1.51"/><path d="M-52,1318L45,1323L3,1158Z" fill="#777777" stroke="#777777" stroke-width="1.51"/><path d="M3,1158L45,1323L57,1156Z" fill="#767676" stroke="#767676" stroke-width="1.51"/><path d="M180,1251L45,1323L452,1303Z" fill="#717171" stroke="#717171" stroke-width="1.51"/><path d="M452,1303L45,1323L759,1334Z" fill="#696969" stroke="#696969" stroke-width="1.51"/><path d="M-224,1243L-153,1147L-144,978Z" fill="#777777" stroke="#777777" stroke-width="1.51"/><path d="M-232,289L-239,718L-153,507Z" fill="#cecece" stroke="#cecece" stroke-width="1.51"/><path d="M2008,842L2096,795L1922,761Z" fill="#2c2c2c" stroke="#2c2c2c" stroke-width="1.51"/><path d="M1919,1112L2012,1026L1801,1037Z" fill="#050605" stroke="#050605" stroke-width="1.51"/><path d="M2057,1050L2012,1026L1919,1112Z" fill="#030403" stroke="#030403" stroke-width="1.51"/><path d="M-186,239L-232,289L-79,346Z" fill="#eaeaea" stroke="#eaeaea" stroke-width="1.51"/><path d="M-236,60L-232,289L-186,239Z" fill="#f2f2f2" stroke="#f2f2f2" stroke-width="1.51"/><path d="M2016,117L1963,-43L1858,41Z" fill="#757575" stroke="#757575" stroke-width="1.51"/><path d="M2115,880L2096,795L2008,842Z" fill="#262626" stroke="#262626" stroke-width="1.51"/><path d="M2071,527L2147,190L2060,335Z" fill="#5f5f5f" stroke="#5f5f5f" stroke-width="1.51"/><path d="M-211,-40L-236,60L-25,111Z" fill="#fcfcfc" stroke="#fcfcfc" stroke-width="1.51"/><path d="M31,-211L-36,-184L-44,-110Z" fill="#ffffff" stroke="#ffffff" stroke-width="1.51"/><path d="M2012,1026L2115,880L2008,842Z" fill="#1a1a1a" stroke="#1a1a1a" stroke-width="1.51"/><path d="M2096,795L2147,190L2071,527Z" fill="#4d4d4d" stroke="#4d4d4d" stroke-width="1.51"/><path d="M-144,978L-153,1147L-72,975Z" fill="#7d7d7d" stroke="#7d7d7d" stroke-width="1.51"/><path d="M-224,1243L-144,978L-162,910Z" fill="#7c7c7c" stroke="#7c7c7c" stroke-width="1.51"/><path d="M2012,1026L2057,1050L2115,880Z" fill="#111111" stroke="#111111" stroke-width="1.51"/><path d="M2099,1121L2057,1050L1919,1112Z" fill="#000000" stroke="#000000" stroke-width="1.51"/><path d="M-153,1147L-52,1318L3,1158Z" fill="#777777" stroke="#777777" stroke-width="1.51"/><path d="M1805,1281L1941,1281L1874,1148Z" fill="#050505" stroke="#050505" stroke-width="1.51"/><path d="M1559,1309L1941,1281L1742,1288Z" fill="#121212" stroke="#121212" stroke-width="1.51"/><path d="M-211,-40L-25,111L-44,-110Z" fill="#ffffff" stroke="#ffffff" stroke-width="1.51"/><path d="M-232,289L-236,60L-239,718Z" fill="#e3e3e3" stroke="#e3e3e3" stroke-width="1.51"/><path d="M2016,117L2114,44L1963,-43Z" fill="#757575" stroke="#757575" stroke-width="1.51"/><path d="M2060,335L2147,190L2016,117Z" fill="#6a6a6a" stroke="#6a6a6a" stroke-width="1.51"/><path d="M2115,880L2147,190L2096,795Z" fill="#404040" stroke="#404040" stroke-width="1.51"/><path d="M2155,-47L1985,-167L1963,-43Z" fill="#777777" stroke="#777777" stroke-width="1.51"/><path d="M1963,-43L1985,-167L1869,-85Z" fill="#777777" stroke="#777777" stroke-width="1.51"/><path d="M-212,-233L-211,-40L-44,-110Z" fill="#ffffff" stroke="#ffffff" stroke-width="1.51"/><path d="M2147,190L2114,44L2016,117Z" fill="#717171" stroke="#717171" stroke-width="1.51"/><path d="M2056,1263L2099,1121L1919,1112Z" fill="#000000" stroke="#000000" stroke-width="1.51"/><path d="M2057,1050L2099,1121L2115,880Z" fill="#0c0c0c" stroke="#0c0c0c" stroke-width="1.51"/><path d="M1941,1281L2056,1263L1919,1112Z" fill="#000000" stroke="#000000" stroke-width="1.51"/><path d="M-153,1147L-224,1243L-52,1318Z" fill="#777777" stroke="#777777" stroke-width="1.51"/><path d="M-239,718L-224,1243L-162,910Z" fill="#888888" stroke="#888888" stroke-width="1.51"/><path d="M2147,190L2155,-47L2114,44Z" fill="#747474" stroke="#747474" stroke-width="1.51"/><path d="M2114,44L2155,-47L1963,-43Z" fill="#777777" stroke="#777777" stroke-width="1.51"/><path d="M-36,-184L-212,-233L-44,-110Z" fill="#ffffff" stroke="#ffffff" stroke-width="1.51"/><path d="M-211,-40L-212,-233L-236,60Z" fill="#ffffff" stroke="#ffffff" stroke-width="1.51"/><path d="M31,-211L-212,-233L-36,-184Z" fill="#ffffff" stroke="#ffffff" stroke-width="1.51"/><path d="M177,-254L-212,-233L31,-211Z" fill="#ffffff" stroke="#ffffff" stroke-width="1.51"/><path d="M2155,-47L2107,-187L1985,-167Z" fill="#777777" stroke="#777777" stroke-width="1.51"/><path d="M1985,-167L2107,-187L1797,-211Z" fill="#777777" stroke="#777777" stroke-width="1.51"/><path d="M1797,-211L2107,-187L1706,-222Z" fill="#7b7b7b" stroke="#7b7b7b" stroke-width="1.51"/></svg>